<?xml version="1.0" encoding="UTF-8"?>
<svg width="512px" height="512px" viewBox="0 0 512 512" version="1.1" xmlns="http://www.w3.org/2000/svg" xmlns:xlink="http://www.w3.org/1999/xlink">
    <!-- Generator: Sketch 46.2 (44496) - http://www.bohemiancoding.com/sketch -->
    <title>target</title>
    <desc>Created with Sketch.</desc>
    <defs></defs>
    <g id="Page-1" stroke="none" stroke-width="1" fill="none" fill-rule="evenodd">
        <g id="target" fill-rule="nonzero">
            <path d="M458.667,225.066 L490.667,225.066 C476.8,118.399 392.533,34.133 286.933,20.267 L286.933,52.267 C375.467,66.134 445.866,136.533 458.667,225.066 Z M286.934,458.667 L286.934,490.667 C392.534,476.8 477.868,392.533 490.668,286.933 L458.668,286.933 C445.866,375.467 375.467,445.866 286.934,458.667 Z M53.333,286.934 L21.333,286.934 C35.2,393.601 119.467,477.867 225.067,490.668 L225.067,458.668 C136.533,445.866 66.134,375.467 53.333,286.934 Z M21.333,225.066 L53.333,225.066 C67.2,136.532 136.533,66.132 225.067,53.332 L225.067,21.333 C119.467,35.2 35.2,119.467 21.333,225.066 Z" id="Shape" fill="#D0CDE0"></path>
            <path d="M374.4,225.066 L407.467,225.066 C394.667,165.333 346.667,117.332 286.934,105.599 L286.934,138.666 C329.6,149.334 362.666,182.4 374.4,225.066 Z M286.934,374.4 L286.934,407.467 C346.667,394.667 394.668,346.667 406.401,286.934 L373.334,286.934 C362.666,329.6 329.6,362.666 286.934,374.4 Z M137.6,286.934 L104.533,286.934 C117.333,346.667 165.333,394.668 225.066,406.401 L225.066,373.334 C182.4,362.666 149.334,329.6 137.6,286.934 Z M105.6,225.066 L138.667,225.066 C149.334,182.399 183.467,149.332 226.134,137.599 L226.134,104.533 C165.333,117.334 117.334,165.333 105.6,225.066 Z" id="Shape" fill="#EAAAAA"></path>
            <polygon id="Shape" fill="#6D899D" points="512 241.067 270.933 241.067 270.933 0 241.067 0 241.067 241.067 0 241.067 0 270.933 241.067 270.933 241.067 512 270.933 512 270.933 270.933 512 270.933"></polygon>
            <circle id="Oval" fill="#F3E570" cx="256.005" cy="256.005" r="54.4"></circle>
        </g>
    </g>
</svg>